<mxfile host="app.diagrams.net" modified="2023-10-27T16:05:36.976Z" agent="Mozilla/5.0 (X11; Linux x86_64) AppleWebKit/537.36 (KHTML, like Gecko) Chrome/118.0.0.0 Safari/537.36" etag="pdeoH6SqGRhVla-xBOdo" version="22.0.8" type="github">
  <diagram name="Page-1" id="2YBvvXClWsGukQMizWep">
    <mxGraphModel dx="2924" dy="1077" grid="1" gridSize="10" guides="1" tooltips="1" connect="1" arrows="1" fold="1" page="1" pageScale="1" pageWidth="850" pageHeight="1100" math="0" shadow="0">
      <root>
        <mxCell id="0" />
        <mxCell id="1" parent="0" />
        <mxCell id="lIXqguOIdfTzaIHsmeOv-60" value="" style="edgeStyle=orthogonalEdgeStyle;rounded=0;orthogonalLoop=1;jettySize=auto;html=1;" edge="1" parent="1" source="lIXqguOIdfTzaIHsmeOv-93" target="lIXqguOIdfTzaIHsmeOv-109">
          <mxGeometry relative="1" as="geometry">
            <mxPoint x="-350" y="290" as="sourcePoint" />
            <mxPoint x="-350" y="210" as="targetPoint" />
          </mxGeometry>
        </mxCell>
        <mxCell id="lIXqguOIdfTzaIHsmeOv-61" value="select" style="edgeStyle=orthogonalEdgeStyle;rounded=0;orthogonalLoop=1;jettySize=auto;html=1;" edge="1" parent="1" source="lIXqguOIdfTzaIHsmeOv-121" target="lIXqguOIdfTzaIHsmeOv-85">
          <mxGeometry y="-1" relative="1" as="geometry">
            <Array as="points" />
            <mxPoint as="offset" />
            <mxPoint x="-59" y="350" as="sourcePoint" />
          </mxGeometry>
        </mxCell>
        <mxCell id="lIXqguOIdfTzaIHsmeOv-63" value="" style="edgeStyle=orthogonalEdgeStyle;rounded=0;orthogonalLoop=1;jettySize=auto;html=1;" edge="1" parent="1" source="lIXqguOIdfTzaIHsmeOv-87" target="lIXqguOIdfTzaIHsmeOv-78">
          <mxGeometry relative="1" as="geometry" />
        </mxCell>
        <mxCell id="lIXqguOIdfTzaIHsmeOv-70" value="create" style="edgeStyle=orthogonalEdgeStyle;rounded=0;orthogonalLoop=1;jettySize=auto;html=1;exitX=1;exitY=0.25;exitDx=0;exitDy=0;" edge="1" parent="1" source="lIXqguOIdfTzaIHsmeOv-72" target="lIXqguOIdfTzaIHsmeOv-121">
          <mxGeometry x="0.2441" relative="1" as="geometry">
            <Array as="points">
              <mxPoint x="-230" y="575" />
              <mxPoint x="-230" y="320" />
            </Array>
            <mxPoint as="offset" />
            <mxPoint x="-119" y="320" as="targetPoint" />
          </mxGeometry>
        </mxCell>
        <mxCell id="lIXqguOIdfTzaIHsmeOv-71" value="insert" style="edgeStyle=orthogonalEdgeStyle;rounded=0;orthogonalLoop=1;jettySize=auto;html=1;" edge="1" parent="1" source="lIXqguOIdfTzaIHsmeOv-72" target="lIXqguOIdfTzaIHsmeOv-130">
          <mxGeometry x="0.3333" relative="1" as="geometry">
            <Array as="points">
              <mxPoint x="-230" y="590" />
            </Array>
            <mxPoint as="offset" />
            <mxPoint x="-230" y="710" as="targetPoint" />
          </mxGeometry>
        </mxCell>
        <mxCell id="lIXqguOIdfTzaIHsmeOv-72" value="Create Processor" style="rounded=1;whiteSpace=wrap;html=1;fillColor=#dae8fc;strokeColor=#6c8ebf;" vertex="1" parent="1">
          <mxGeometry x="-410" y="560" width="120" height="60" as="geometry" />
        </mxCell>
        <mxCell id="lIXqguOIdfTzaIHsmeOv-73" value="event bus&lt;br&gt;response" style="edgeStyle=orthogonalEdgeStyle;rounded=0;orthogonalLoop=1;jettySize=auto;html=1;" edge="1" parent="1" source="lIXqguOIdfTzaIHsmeOv-76" target="lIXqguOIdfTzaIHsmeOv-85">
          <mxGeometry relative="1" as="geometry">
            <mxPoint x="35" y="80" as="sourcePoint" />
            <Array as="points">
              <mxPoint x="21" y="570" />
              <mxPoint x="21" y="460" />
            </Array>
          </mxGeometry>
        </mxCell>
        <mxCell id="lIXqguOIdfTzaIHsmeOv-74" value="other&lt;br&gt;db&lt;br&gt;action" style="edgeStyle=orthogonalEdgeStyle;rounded=0;orthogonalLoop=1;jettySize=auto;html=1;exitX=1;exitY=0.5;exitDx=0;exitDy=0;" edge="1" parent="1" source="lIXqguOIdfTzaIHsmeOv-76" target="lIXqguOIdfTzaIHsmeOv-135">
          <mxGeometry x="0.1534" y="1" relative="1" as="geometry">
            <mxPoint x="-30" y="70" as="sourcePoint" />
            <mxPoint x="179" y="790" as="targetPoint" />
            <Array as="points">
              <mxPoint x="1" y="600" />
              <mxPoint x="179" y="600" />
            </Array>
            <mxPoint as="offset" />
          </mxGeometry>
        </mxCell>
        <mxCell id="lIXqguOIdfTzaIHsmeOv-75" value="invoke idempotent service" style="edgeStyle=orthogonalEdgeStyle;rounded=0;orthogonalLoop=1;jettySize=auto;html=1;exitX=0.75;exitY=1;exitDx=0;exitDy=0;" edge="1" parent="1" source="lIXqguOIdfTzaIHsmeOv-76" target="lIXqguOIdfTzaIHsmeOv-95">
          <mxGeometry x="0.729" relative="1" as="geometry">
            <Array as="points">
              <mxPoint x="-29" y="810" />
              <mxPoint x="-29" y="810" />
            </Array>
            <mxPoint as="offset" />
          </mxGeometry>
        </mxCell>
        <mxCell id="lIXqguOIdfTzaIHsmeOv-76" value="Check Processor" style="rounded=1;whiteSpace=wrap;html=1;fillColor=#dae8fc;strokeColor=#6c8ebf;" vertex="1" parent="1">
          <mxGeometry x="-119" y="560" width="120" height="60" as="geometry" />
        </mxCell>
        <mxCell id="lIXqguOIdfTzaIHsmeOv-77" style="edgeStyle=orthogonalEdgeStyle;rounded=0;orthogonalLoop=1;jettySize=auto;html=1;entryX=1;entryY=0.5;entryDx=0;entryDy=0;" edge="1" parent="1" source="lIXqguOIdfTzaIHsmeOv-78" target="lIXqguOIdfTzaIHsmeOv-87">
          <mxGeometry relative="1" as="geometry">
            <Array as="points">
              <mxPoint x="462" y="580" />
              <mxPoint x="462" y="460" />
            </Array>
          </mxGeometry>
        </mxCell>
        <mxCell id="lIXqguOIdfTzaIHsmeOv-103" style="edgeStyle=orthogonalEdgeStyle;rounded=0;orthogonalLoop=1;jettySize=auto;html=1;" edge="1" parent="1" source="lIXqguOIdfTzaIHsmeOv-78" target="lIXqguOIdfTzaIHsmeOv-136">
          <mxGeometry relative="1" as="geometry">
            <mxPoint x="580" y="790" as="targetPoint" />
          </mxGeometry>
        </mxCell>
        <mxCell id="lIXqguOIdfTzaIHsmeOv-105" style="edgeStyle=orthogonalEdgeStyle;rounded=0;orthogonalLoop=1;jettySize=auto;html=1;" edge="1" parent="1" source="lIXqguOIdfTzaIHsmeOv-78" target="lIXqguOIdfTzaIHsmeOv-104">
          <mxGeometry relative="1" as="geometry">
            <Array as="points">
              <mxPoint x="420" y="650" />
              <mxPoint x="420" y="650" />
            </Array>
          </mxGeometry>
        </mxCell>
        <mxCell id="lIXqguOIdfTzaIHsmeOv-78" value="Release Processor" style="rounded=1;whiteSpace=wrap;html=1;fillColor=#dae8fc;strokeColor=#6c8ebf;" vertex="1" parent="1">
          <mxGeometry x="322" y="560" width="120" height="60" as="geometry" />
        </mxCell>
        <mxCell id="lIXqguOIdfTzaIHsmeOv-79" value="Task Processor" style="rounded=1;whiteSpace=wrap;html=1;fillColor=#dae8fc;strokeColor=#6c8ebf;" vertex="1" parent="1">
          <mxGeometry x="-600" y="560" width="120" height="60" as="geometry" />
        </mxCell>
        <mxCell id="lIXqguOIdfTzaIHsmeOv-80" value="Task Poller" style="rounded=1;whiteSpace=wrap;html=1;fillColor=#dae8fc;strokeColor=#6c8ebf;" vertex="1" parent="1">
          <mxGeometry x="-600" y="430" width="120" height="60" as="geometry" />
        </mxCell>
        <mxCell id="lIXqguOIdfTzaIHsmeOv-81" value="event bus&lt;br&gt;request" style="edgeStyle=orthogonalEdgeStyle;rounded=0;orthogonalLoop=1;jettySize=auto;html=1;" edge="1" parent="1" source="lIXqguOIdfTzaIHsmeOv-85" target="lIXqguOIdfTzaIHsmeOv-76">
          <mxGeometry relative="1" as="geometry" />
        </mxCell>
        <mxCell id="lIXqguOIdfTzaIHsmeOv-82" value="update" style="edgeStyle=orthogonalEdgeStyle;rounded=0;orthogonalLoop=1;jettySize=auto;html=1;exitX=1;exitY=0.5;exitDx=0;exitDy=0;" edge="1" parent="1" source="lIXqguOIdfTzaIHsmeOv-76" target="lIXqguOIdfTzaIHsmeOv-121">
          <mxGeometry x="-0.3977" relative="1" as="geometry">
            <Array as="points">
              <mxPoint x="1" y="580" />
              <mxPoint x="130" y="580" />
              <mxPoint x="130" y="320" />
            </Array>
            <mxPoint as="offset" />
            <mxPoint x="1" y="320" as="targetPoint" />
          </mxGeometry>
        </mxCell>
        <mxCell id="lIXqguOIdfTzaIHsmeOv-83" value="create" style="edgeStyle=orthogonalEdgeStyle;rounded=0;orthogonalLoop=1;jettySize=auto;html=1;exitX=1;exitY=0.5;exitDx=0;exitDy=0;" edge="1" parent="1" source="lIXqguOIdfTzaIHsmeOv-76" target="lIXqguOIdfTzaIHsmeOv-122">
          <mxGeometry x="-0.2915" relative="1" as="geometry">
            <Array as="points">
              <mxPoint x="180" y="590" />
              <mxPoint x="180" y="320" />
            </Array>
            <mxPoint as="offset" />
            <mxPoint x="322" y="320" as="targetPoint" />
          </mxGeometry>
        </mxCell>
        <mxCell id="lIXqguOIdfTzaIHsmeOv-84" value="update" style="edgeStyle=orthogonalEdgeStyle;rounded=0;orthogonalLoop=1;jettySize=auto;html=1;entryX=0.5;entryY=0;entryDx=0;entryDy=0;" edge="1" parent="1" source="lIXqguOIdfTzaIHsmeOv-76" target="lIXqguOIdfTzaIHsmeOv-132">
          <mxGeometry x="0.2344" relative="1" as="geometry">
            <mxPoint x="10" y="60" as="sourcePoint" />
            <mxPoint x="130" y="710" as="targetPoint" />
            <Array as="points">
              <mxPoint x="110" y="610" />
            </Array>
            <mxPoint as="offset" />
          </mxGeometry>
        </mxCell>
        <mxCell id="lIXqguOIdfTzaIHsmeOv-85" value="Poller&lt;br&gt;payment.check" style="rounded=1;whiteSpace=wrap;html=1;fillColor=#dae8fc;strokeColor=#6c8ebf;" vertex="1" parent="1">
          <mxGeometry x="-119" y="430" width="120" height="60" as="geometry" />
        </mxCell>
        <mxCell id="lIXqguOIdfTzaIHsmeOv-86" value="" style="edgeStyle=orthogonalEdgeStyle;rounded=0;orthogonalLoop=1;jettySize=auto;html=1;" edge="1" parent="1" source="lIXqguOIdfTzaIHsmeOv-122" target="lIXqguOIdfTzaIHsmeOv-87">
          <mxGeometry relative="1" as="geometry">
            <mxPoint x="382" y="350" as="sourcePoint" />
            <mxPoint x="382" y="90" as="targetPoint" />
          </mxGeometry>
        </mxCell>
        <mxCell id="lIXqguOIdfTzaIHsmeOv-87" value="Poller&lt;br&gt;payment.release" style="rounded=1;whiteSpace=wrap;html=1;fillColor=#dae8fc;strokeColor=#6c8ebf;" vertex="1" parent="1">
          <mxGeometry x="322" y="430" width="120" height="60" as="geometry" />
        </mxCell>
        <mxCell id="lIXqguOIdfTzaIHsmeOv-88" value="" style="edgeStyle=orthogonalEdgeStyle;rounded=0;orthogonalLoop=1;jettySize=auto;html=1;" edge="1" parent="1" source="lIXqguOIdfTzaIHsmeOv-89" target="lIXqguOIdfTzaIHsmeOv-76">
          <mxGeometry relative="1" as="geometry">
            <Array as="points">
              <mxPoint x="-100" y="640" />
              <mxPoint x="-100" y="640" />
            </Array>
          </mxGeometry>
        </mxCell>
        <mxCell id="lIXqguOIdfTzaIHsmeOv-89" value="workflow rule" style="ellipse;whiteSpace=wrap;html=1;fillColor=#fff2cc;strokeColor=#d6b656;" vertex="1" parent="1">
          <mxGeometry x="-160" y="780" width="120" height="80" as="geometry" />
        </mxCell>
        <mxCell id="lIXqguOIdfTzaIHsmeOv-90" value="" style="edgeStyle=orthogonalEdgeStyle;rounded=0;orthogonalLoop=1;jettySize=auto;html=1;" edge="1" parent="1" source="lIXqguOIdfTzaIHsmeOv-91" target="lIXqguOIdfTzaIHsmeOv-72">
          <mxGeometry relative="1" as="geometry" />
        </mxCell>
        <mxCell id="lIXqguOIdfTzaIHsmeOv-91" value="workflow rule" style="ellipse;whiteSpace=wrap;html=1;fillColor=#fff2cc;strokeColor=#d6b656;" vertex="1" parent="1">
          <mxGeometry x="-410" y="780" width="120" height="80" as="geometry" />
        </mxCell>
        <mxCell id="lIXqguOIdfTzaIHsmeOv-92" value="&amp;nbsp; txn" style="rounded=1;whiteSpace=wrap;html=1;dashed=1;dashPattern=1 1;fillColor=none;align=left;verticalAlign=bottom;" vertex="1" parent="1">
          <mxGeometry x="82" y="540" width="140" height="130" as="geometry" />
        </mxCell>
        <mxCell id="lIXqguOIdfTzaIHsmeOv-93" value="start&lt;br&gt;ext sys action" style="ellipse;whiteSpace=wrap;html=1;aspect=fixed;" vertex="1" parent="1">
          <mxGeometry x="-390" y="10" width="80" height="80" as="geometry" />
        </mxCell>
        <mxCell id="lIXqguOIdfTzaIHsmeOv-95" value="Other service" style="rounded=1;whiteSpace=wrap;html=1;" vertex="1" parent="1">
          <mxGeometry x="-100" y="930" width="120" height="60" as="geometry" />
        </mxCell>
        <mxCell id="lIXqguOIdfTzaIHsmeOv-96" style="edgeStyle=orthogonalEdgeStyle;rounded=0;orthogonalLoop=1;jettySize=auto;html=1;" edge="1" parent="1" source="lIXqguOIdfTzaIHsmeOv-78" target="lIXqguOIdfTzaIHsmeOv-134">
          <mxGeometry relative="1" as="geometry">
            <Array as="points">
              <mxPoint x="510" y="600" />
            </Array>
            <mxPoint x="510" y="710" as="targetPoint" />
          </mxGeometry>
        </mxCell>
        <mxCell id="lIXqguOIdfTzaIHsmeOv-104" value="Other service" style="rounded=1;whiteSpace=wrap;html=1;" vertex="1" parent="1">
          <mxGeometry x="360" y="930" width="120" height="60" as="geometry" />
        </mxCell>
        <mxCell id="lIXqguOIdfTzaIHsmeOv-107" style="edgeStyle=orthogonalEdgeStyle;rounded=0;orthogonalLoop=1;jettySize=auto;html=1;" edge="1" parent="1" source="lIXqguOIdfTzaIHsmeOv-106" target="lIXqguOIdfTzaIHsmeOv-78">
          <mxGeometry relative="1" as="geometry">
            <Array as="points">
              <mxPoint x="361" y="690" />
              <mxPoint x="361" y="690" />
            </Array>
          </mxGeometry>
        </mxCell>
        <mxCell id="lIXqguOIdfTzaIHsmeOv-106" value="workflow rule" style="ellipse;whiteSpace=wrap;html=1;fillColor=#fff2cc;strokeColor=#d6b656;" vertex="1" parent="1">
          <mxGeometry x="291" y="780" width="120" height="80" as="geometry" />
        </mxCell>
        <mxCell id="lIXqguOIdfTzaIHsmeOv-108" value="Channel" style="rounded=1;whiteSpace=wrap;html=1;fillColor=#dae8fc;strokeColor=#6c8ebf;" vertex="1" parent="1">
          <mxGeometry x="-600" y="170" width="120" height="60" as="geometry" />
        </mxCell>
        <mxCell id="lIXqguOIdfTzaIHsmeOv-127" style="edgeStyle=orthogonalEdgeStyle;rounded=0;orthogonalLoop=1;jettySize=auto;html=1;" edge="1" parent="1" source="lIXqguOIdfTzaIHsmeOv-109" target="lIXqguOIdfTzaIHsmeOv-72">
          <mxGeometry relative="1" as="geometry" />
        </mxCell>
        <mxCell id="lIXqguOIdfTzaIHsmeOv-109" value="Create Endpoint" style="rounded=1;whiteSpace=wrap;html=1;fillColor=#dae8fc;strokeColor=#6c8ebf;" vertex="1" parent="1">
          <mxGeometry x="-410" y="170" width="120" height="60" as="geometry" />
        </mxCell>
        <mxCell id="lIXqguOIdfTzaIHsmeOv-120" value="event bus&lt;br&gt;request" style="edgeStyle=orthogonalEdgeStyle;rounded=0;orthogonalLoop=1;jettySize=auto;html=1;" edge="1" parent="1" source="lIXqguOIdfTzaIHsmeOv-110" target="lIXqguOIdfTzaIHsmeOv-114">
          <mxGeometry relative="1" as="geometry" />
        </mxCell>
        <mxCell id="lIXqguOIdfTzaIHsmeOv-110" value="Manual Release Endpoint" style="rounded=1;whiteSpace=wrap;html=1;fillColor=#dae8fc;strokeColor=#6c8ebf;" vertex="1" parent="1">
          <mxGeometry x="731" y="170" width="120" height="60" as="geometry" />
        </mxCell>
        <mxCell id="lIXqguOIdfTzaIHsmeOv-112" style="edgeStyle=orthogonalEdgeStyle;rounded=0;orthogonalLoop=1;jettySize=auto;html=1;" edge="1" parent="1" source="lIXqguOIdfTzaIHsmeOv-114" target="lIXqguOIdfTzaIHsmeOv-137">
          <mxGeometry relative="1" as="geometry">
            <mxPoint x="989" y="790" as="targetPoint" />
          </mxGeometry>
        </mxCell>
        <mxCell id="lIXqguOIdfTzaIHsmeOv-113" style="edgeStyle=orthogonalEdgeStyle;rounded=0;orthogonalLoop=1;jettySize=auto;html=1;" edge="1" parent="1" source="lIXqguOIdfTzaIHsmeOv-114" target="lIXqguOIdfTzaIHsmeOv-117">
          <mxGeometry relative="1" as="geometry">
            <Array as="points">
              <mxPoint x="829" y="650" />
              <mxPoint x="829" y="650" />
            </Array>
          </mxGeometry>
        </mxCell>
        <mxCell id="lIXqguOIdfTzaIHsmeOv-123" value="event bus&lt;br&gt;response" style="edgeStyle=orthogonalEdgeStyle;rounded=0;orthogonalLoop=1;jettySize=auto;html=1;entryX=1;entryY=0.75;entryDx=0;entryDy=0;" edge="1" parent="1" source="lIXqguOIdfTzaIHsmeOv-114" target="lIXqguOIdfTzaIHsmeOv-110">
          <mxGeometry relative="1" as="geometry">
            <Array as="points">
              <mxPoint x="871" y="570" />
              <mxPoint x="871" y="215" />
            </Array>
          </mxGeometry>
        </mxCell>
        <mxCell id="lIXqguOIdfTzaIHsmeOv-125" value="create" style="edgeStyle=orthogonalEdgeStyle;rounded=0;orthogonalLoop=1;jettySize=auto;html=1;entryX=0;entryY=0.5;entryDx=0;entryDy=0;" edge="1" parent="1" source="lIXqguOIdfTzaIHsmeOv-114" target="lIXqguOIdfTzaIHsmeOv-124">
          <mxGeometry relative="1" as="geometry">
            <Array as="points">
              <mxPoint x="990" y="580" />
              <mxPoint x="990" y="330" />
            </Array>
          </mxGeometry>
        </mxCell>
        <mxCell id="lIXqguOIdfTzaIHsmeOv-114" value="Manual Release Processor" style="rounded=1;whiteSpace=wrap;html=1;fillColor=#dae8fc;strokeColor=#6c8ebf;" vertex="1" parent="1">
          <mxGeometry x="731" y="560" width="120" height="60" as="geometry" />
        </mxCell>
        <mxCell id="lIXqguOIdfTzaIHsmeOv-115" style="edgeStyle=orthogonalEdgeStyle;rounded=0;orthogonalLoop=1;jettySize=auto;html=1;" edge="1" parent="1" source="lIXqguOIdfTzaIHsmeOv-114" target="lIXqguOIdfTzaIHsmeOv-133">
          <mxGeometry relative="1" as="geometry">
            <Array as="points">
              <mxPoint x="919" y="600" />
            </Array>
            <mxPoint x="919" y="710" as="targetPoint" />
          </mxGeometry>
        </mxCell>
        <mxCell id="lIXqguOIdfTzaIHsmeOv-117" value="Other service" style="rounded=1;whiteSpace=wrap;html=1;" vertex="1" parent="1">
          <mxGeometry x="769" y="930" width="120" height="60" as="geometry" />
        </mxCell>
        <mxCell id="lIXqguOIdfTzaIHsmeOv-118" style="edgeStyle=orthogonalEdgeStyle;rounded=0;orthogonalLoop=1;jettySize=auto;html=1;" edge="1" parent="1" source="lIXqguOIdfTzaIHsmeOv-119" target="lIXqguOIdfTzaIHsmeOv-114">
          <mxGeometry relative="1" as="geometry">
            <Array as="points">
              <mxPoint x="770" y="690" />
              <mxPoint x="770" y="690" />
            </Array>
          </mxGeometry>
        </mxCell>
        <mxCell id="lIXqguOIdfTzaIHsmeOv-119" value="workflow rule" style="ellipse;whiteSpace=wrap;html=1;fillColor=#fff2cc;strokeColor=#d6b656;" vertex="1" parent="1">
          <mxGeometry x="700" y="780" width="120" height="80" as="geometry" />
        </mxCell>
        <mxCell id="lIXqguOIdfTzaIHsmeOv-121" value="Task Check" style="ellipse;whiteSpace=wrap;html=1;fillColor=#fff2cc;strokeColor=#d6b656;" vertex="1" parent="1">
          <mxGeometry x="-120" y="280" width="120" height="80" as="geometry" />
        </mxCell>
        <mxCell id="lIXqguOIdfTzaIHsmeOv-122" value="Task Release" style="ellipse;whiteSpace=wrap;html=1;fillColor=#fff2cc;strokeColor=#d6b656;" vertex="1" parent="1">
          <mxGeometry x="322" y="280" width="120" height="80" as="geometry" />
        </mxCell>
        <mxCell id="lIXqguOIdfTzaIHsmeOv-124" value="Task Release" style="ellipse;whiteSpace=wrap;html=1;" vertex="1" parent="1">
          <mxGeometry x="1049" y="290" width="120" height="80" as="geometry" />
        </mxCell>
        <mxCell id="lIXqguOIdfTzaIHsmeOv-128" value="" style="edgeStyle=orthogonalEdgeStyle;rounded=0;orthogonalLoop=1;jettySize=auto;html=1;" edge="1" parent="1" source="lIXqguOIdfTzaIHsmeOv-126" target="lIXqguOIdfTzaIHsmeOv-110">
          <mxGeometry relative="1" as="geometry" />
        </mxCell>
        <mxCell id="lIXqguOIdfTzaIHsmeOv-126" value="start&lt;br&gt;user action" style="ellipse;whiteSpace=wrap;html=1;aspect=fixed;" vertex="1" parent="1">
          <mxGeometry x="751" y="20" width="80" height="80" as="geometry" />
        </mxCell>
        <mxCell id="lIXqguOIdfTzaIHsmeOv-129" value="Task&lt;br&gt;in Queue" style="ellipse;whiteSpace=wrap;html=1;fillColor=#fff2cc;strokeColor=#d6b656;" vertex="1" parent="1">
          <mxGeometry x="-600" y="280" width="120" height="80" as="geometry" />
        </mxCell>
        <mxCell id="lIXqguOIdfTzaIHsmeOv-130" value="CREATED" style="ellipse;whiteSpace=wrap;html=1;fillColor=#fff2cc;strokeColor=#d6b656;" vertex="1" parent="1">
          <mxGeometry x="-290" y="710" width="120" height="80" as="geometry" />
        </mxCell>
        <mxCell id="lIXqguOIdfTzaIHsmeOv-131" value="Object Status" style="ellipse;whiteSpace=wrap;html=1;fillColor=#fff2cc;strokeColor=#d6b656;" vertex="1" parent="1">
          <mxGeometry x="-600" y="700" width="120" height="80" as="geometry" />
        </mxCell>
        <mxCell id="lIXqguOIdfTzaIHsmeOv-132" value="PENDING&lt;br&gt;RELEASE" style="ellipse;whiteSpace=wrap;html=1;fillColor=#fff2cc;strokeColor=#d6b656;" vertex="1" parent="1">
          <mxGeometry x="50" y="700" width="120" height="80" as="geometry" />
        </mxCell>
        <mxCell id="lIXqguOIdfTzaIHsmeOv-133" value="PENDING&lt;br&gt;RELEASE" style="ellipse;whiteSpace=wrap;html=1;fillColor=#fff2cc;strokeColor=#d6b656;" vertex="1" parent="1">
          <mxGeometry x="860" y="700" width="120" height="80" as="geometry" />
        </mxCell>
        <mxCell id="lIXqguOIdfTzaIHsmeOv-134" value="RELEASED" style="ellipse;whiteSpace=wrap;html=1;fillColor=#fff2cc;strokeColor=#d6b656;" vertex="1" parent="1">
          <mxGeometry x="450" y="700" width="120" height="80" as="geometry" />
        </mxCell>
        <mxCell id="lIXqguOIdfTzaIHsmeOv-135" value="Audit etc." style="ellipse;whiteSpace=wrap;html=1;fillColor=#fff2cc;strokeColor=#d6b656;" vertex="1" parent="1">
          <mxGeometry x="120" y="780" width="120" height="80" as="geometry" />
        </mxCell>
        <mxCell id="lIXqguOIdfTzaIHsmeOv-136" value="Audit etc." style="ellipse;whiteSpace=wrap;html=1;fillColor=#fff2cc;strokeColor=#d6b656;" vertex="1" parent="1">
          <mxGeometry x="520" y="780" width="120" height="80" as="geometry" />
        </mxCell>
        <mxCell id="lIXqguOIdfTzaIHsmeOv-137" value="Audit etc." style="ellipse;whiteSpace=wrap;html=1;fillColor=#fff2cc;strokeColor=#d6b656;" vertex="1" parent="1">
          <mxGeometry x="929" y="780" width="120" height="80" as="geometry" />
        </mxCell>
      </root>
    </mxGraphModel>
  </diagram>
</mxfile>
